<?xml version="1.0" encoding="UTF-8"?>
<svg width="341px" height="95px" viewBox="0 0 341 95" version="1.1" xmlns="http://www.w3.org/2000/svg" xmlns:xlink="http://www.w3.org/1999/xlink">
    <!-- Generator: Sketch 49.2 (51160) - http://www.bohemiancoding.com/sketch -->
    <title>Group 7</title>
    <desc>Created with Sketch.</desc>
    <defs></defs>
    <g id="Welcome" stroke="none" stroke-width="1" fill="none" fill-rule="evenodd">
        <g id="Desktop" transform="translate(-103.000000, -32.000000)" fill="#616B3D" fill-rule="nonzero">
            <g id="Group-7" transform="translate(103.000000, 32.000000)">
                <path d="M179.746602,24.001931 L177.018843,24.001931 C176.954575,23.993576 176.889718,24.0125871 176.841093,24.0540335 C176.792468,24.09548 176.764865,24.1552784 176.765445,24.2179196 L174.76807,33.0014544 L172.204275,24.2179196 C172.204275,24.0883265 172.085028,24.001931 171.950876,24.001931 L170.02803,24.001931 C169.892222,23.9989971 169.773385,24.0896276 169.74482,24.2179196 L167.27046,33.0014544 L165.18365,24.2179196 C165.168057,24.088374 165.050062,23.9933866 164.915346,24.001931 L162.172682,24.001931 C162.023624,24.001931 161.978907,24.0883265 162.008718,24.2179196 L165.75007,37.7964004 C165.777165,37.9114964 165.881339,37.9943709 166.003468,37.9979897 L168.134996,37.9979897 C168.268193,38.0082953 168.388938,37.9223485 168.418206,37.7964004 L170.952189,29.0848618 L173.456361,37.7964004 C173.485628,37.9223485 173.606374,38.0082953 173.739571,37.9979897 L175.990344,37.9979897 C176.053685,38.0061243 176.117756,37.9893648 176.168194,37.9514684 C176.218632,37.9135719 176.251218,37.8577083 176.258648,37.7964004 L180,24.2179196 C179.940377,24.0883265 179.89566,24.001931 179.746602,24.001931 Z" id="Shape"></path>
                <path d="M193.505171,24.0185369 C191.231392,23.8174356 189.123176,25.2700396 188.412848,27.527251 C188.070618,28.8191193 187.939689,30.1617207 188.025544,31.4988167 C187.939689,32.8359127 188.070618,34.1785141 188.412848,35.4703824 C189.267787,37.6076455 191.273765,39 193.497999,39 C195.722233,39 197.72821,37.6076455 198.58315,35.4703824 C198.93348,34.180107 199.064552,32.8360467 198.970453,31.4988167 C199.062504,30.1616175 198.931468,28.8179246 198.58315,27.527251 C197.878485,25.2723471 195.775202,23.819049 193.505171,24.0185369 Z M195.69989,34.6193326 C195.361793,35.5771493 194.485532,36.213724 193.505171,36.213724 C192.52481,36.213724 191.648549,35.5771493 191.310451,34.6193326 C191.080595,33.5975761 191.003184,32.5450846 191.080938,31.4988167 C191.00375,30.4574962 191.081163,29.4100136 191.310451,28.3932315 C191.635511,27.4209991 192.51616,26.7694392 193.505171,26.7694392 C194.494182,26.7694392 195.374831,27.4209991 195.69989,28.3932315 C195.913058,29.4125206 195.98551,30.4582387 195.915059,31.4988167 C195.986097,32.5443463 195.913646,33.5950779 195.69989,34.6193326 Z" id="Shape"></path>
                <path d="M219.837916,24.0014652 L217.415841,24.0014652 C217.267484,23.9873341 217.128997,24.0766362 217.082261,24.2165707 L213.572427,32.218494 L210.004579,24.2739322 C209.953621,24.1372677 209.818032,24.0498345 209.671,24.0588267 L207.205414,24.0588267 C207.147484,24.0536819 207.090396,24.0752607 207.05071,24.1173029 C207.011024,24.1593451 206.993184,24.2171443 207.002366,24.2739322 L207.002366,37.7968957 C206.997937,37.8513669 207.017902,37.9050167 207.056983,37.9436579 C207.096064,37.9822991 207.150323,38.0020402 207.205414,37.9976608 L209.540469,37.9976608 C209.597903,38.006739 209.656359,37.9890996 209.698879,37.9498602 C209.7414,37.9106209 209.763224,37.8541741 209.758021,37.7968957 L209.758021,29.895355 L212.383145,35.7749044 C212.436689,35.9408117 212.599257,36.0479715 212.774738,36.0330309 L214.225082,36.0330309 C214.400563,36.0479715 214.563131,35.9408117 214.616675,35.7749044 L217.241799,29.895355 L217.241799,37.7395343 C217.236596,37.7968126 217.25842,37.8532594 217.300941,37.8924988 C217.343461,37.9317382 217.401917,37.9493775 217.459351,37.9402994 L219.794406,37.9402994 C219.849497,37.9446788 219.903757,37.9249377 219.942837,37.8862964 C219.981918,37.8476552 220.001883,37.7940055 219.997454,37.7395343 L219.997454,24.2165707 C220.005769,24.1670404 219.993527,24.1162879 219.963498,24.0758 C219.933469,24.035312 219.888193,24.0085119 219.837916,24.0014652 Z" id="Shape"></path>
                <path d="M228.217491,37.999249 L237.784371,37.999249 C237.842701,38.0036426 237.900151,37.9838374 237.941529,37.9450707 C237.982907,37.9063039 238.004047,37.8524799 237.999357,37.7978318 L237.999357,35.5822422 C238.004047,35.527594 237.982907,35.47377 237.941529,35.4350033 C237.900151,35.3962365 237.842701,35.3764313 237.784371,35.3808249 L231.350145,35.3808249 C231.273364,35.3808249 231.227296,35.3808249 231.227296,35.2513424 L231.227296,32.3739533 C231.227296,32.2876316 231.227296,32.2444708 231.350145,32.2444708 L236.709441,32.2444708 C236.76777,32.2488644 236.82522,32.2290592 236.866599,32.1902924 C236.907977,32.1515257 236.929116,32.0977017 236.924427,32.0430536 L236.924427,29.8418509 C236.929116,29.7872027 236.907977,29.7333787 236.866599,29.694612 C236.82522,29.6558452 236.76777,29.63604 236.709441,29.6404336 L231.350145,29.6404336 C231.273364,29.6404336 231.227296,29.6404336 231.227296,29.5109511 L231.227296,26.7486576 C231.227296,26.6623359 231.227296,26.6191751 231.350145,26.6191751 L237.784371,26.6191751 C237.903105,26.6191751 237.999357,26.5289975 237.999357,26.4177578 L237.999357,24.2165551 C238.003627,24.1606901 237.982877,24.1056819 237.942087,24.0647369 C237.901297,24.0237919 237.844152,24.0006079 237.784371,24.000751 L228.217491,24.000751 C228.156155,23.9955895 228.09571,24.0172384 228.053691,24.0594171 C228.011672,24.1015959 227.992784,24.1595828 228.002505,24.2165551 L228.002505,37.7834449 C227.992784,37.8404172 228.011672,37.8984041 228.053691,37.9405829 C228.09571,37.9827616 228.156155,38.0044105 228.217491,37.999249 Z" id="Shape"></path>
                <path d="M247.178046,37.9976535 L249.535572,37.9976535 C249.591193,38.0020466 249.645975,37.9822437 249.685431,37.9434813 C249.724888,37.904719 249.745046,37.8509011 249.740574,37.7962592 L249.740574,29.0212226 L249.901647,29.0212226 L254.938845,37.7962592 C255.003735,37.9270489 255.14245,38.0065419 255.290278,37.9976535 L257.77959,37.9976535 C257.837577,38.0067601 257.896596,37.9890655 257.939525,37.9497031 C257.982455,37.9103408 258.004489,37.853717 257.999236,37.7962592 L257.999236,24.2165305 C258.003662,24.1580772 257.981946,24.1006299 257.939757,24.059183 C257.897567,24.0177361 257.839091,23.9964026 257.77959,24.0007509 L255.422065,24.0007509 C255.363578,23.99559 255.305939,24.0172364 255.265872,24.0594104 C255.225804,24.1015843 255.207793,24.1595646 255.217062,24.2165305 L255.217062,33.0059524 L255.099918,33.0059524 L250.092006,24.2165305 C250.018329,24.0851934 249.878565,24.0028108 249.725931,24.0007509 L247.221975,24.0007509 C247.162475,23.9964026 247.103998,24.0177361 247.061809,24.059183 C247.019619,24.1006299 246.997904,24.1580772 247.00233,24.2165305 L247.00233,37.7818739 C246.993984,37.8338114 247.008279,37.8868012 247.041715,37.9278598 C247.07515,37.9689184 247.124636,37.9942521 247.178046,37.9976535 Z" id="Shape"></path>
                <path d="M266.202144,27.9976103 C266.304502,27.9891901 266.40027,27.93789 266.470371,27.8539298 L267.846491,26.5477441 C267.953463,26.4546993 268.010632,26.3069353 267.998098,26.1558883 L267.998098,24.1966097 C268.00548,24.1448847 267.991135,24.0922386 267.959225,24.0539446 C267.927314,24.0156507 267.88141,23.9959957 267.834829,24.0006818 L266.17882,24.0006818 C266.13342,24.0005519 266.090022,24.0216006 266.059045,24.0587744 C266.028068,24.0959482 266.012309,24.14589 266.015552,24.1966097 L266.015552,27.7233113 C265.989051,27.7889221 265.996821,27.8655274 266.035787,27.9228083 C266.074752,27.9800893 266.138632,28.0088126 266.202144,27.9976103 Z" id="Shape"></path>
                <path d="M287,34.3285897 C287,31.7022683 285.540308,30.3443408 282.620924,29.9414392 L281.861884,29.8369833 C280.241626,29.5982268 279.657749,29.0610247 279.657749,28.225377 C279.657749,27.3897293 280.300013,26.6585376 281.555349,26.6585376 C282.73406,26.679228 283.879038,27.064192 284.839656,27.7627863 C284.92754,27.8409254 285.058307,27.8409254 285.146191,27.7627863 L286.416123,25.8228899 C286.518302,25.6736671 286.416123,25.5841334 286.416123,25.4945997 C285.007982,24.4831586 283.319617,23.9601286 281.599139,24.0023716 C278.533786,24.0023716 276.563202,25.7632007 276.563202,28.4790558 C276.563202,31.1949108 278.168863,32.4185378 281.059053,32.8214394 L281.803496,32.9408176 C283.496739,33.1646518 283.993034,33.7018539 283.993034,34.5524239 C283.993034,35.4029939 283.16101,36.2834084 281.672124,36.2834084 C280.307008,36.2276414 279.000416,35.7017691 277.964506,34.7911804 C277.923072,34.7454914 277.864885,34.7195242 277.80394,34.7195242 C277.742995,34.7195242 277.684808,34.7454914 277.643374,34.7911804 L276.066906,36.6564654 C275.977698,36.7584266 275.977698,36.912639 276.066906,37.0146002 C277.601701,38.3221646 279.54303,39.0260362 281.540752,38.9992635 C285.073206,38.8948075 287,36.954911 287,34.3285897 Z" id="Shape"></path>
                <path d="M130.931747,61.7119345 C132.073334,61.1200195 132.746592,59.9564797 132.656919,58.7304532 C132.656919,56.5123463 131.130218,55.0000007 127.924146,55.0000007 L122.214285,55.0000007 C122.154851,54.9998574 122.098037,55.0230677 122.057484,55.0640593 C122.016931,55.1050508 121.996301,55.1601215 122.000547,55.21605 L122.000547,68.7983539 C122.000547,68.90972 122.09624,69 122.214285,69 L127.847811,69 C131.053883,69 132.992794,67.6893005 132.992794,64.9238685 C133.08625,63.5517365 132.263744,62.2699444 130.931747,61.7119345 Z M125.130284,57.53498 C125.125174,57.4993389 125.137998,57.4634913 125.164955,57.4380598 C125.191911,57.4126284 125.229908,57.4005302 125.267687,57.4053503 L127.527204,57.4053503 C128.748565,57.4053503 129.481381,58.0102886 129.481381,59.0329223 C129.500228,59.5113128 129.292885,59.9728898 128.915424,60.2928296 C128.537962,60.6127695 128.029377,60.7580198 127.527204,60.6893008 L125.267687,60.6893008 C125.229908,60.694121 125.191911,60.6820228 125.164955,60.6565913 C125.137998,60.6311599 125.125174,60.5953122 125.130284,60.5596712 L125.130284,57.53498 Z M127.710408,66.5082306 L125.267687,66.5082306 C125.176085,66.5082306 125.130284,66.5082306 125.130284,66.3930042 L125.130284,63.1378604 C125.125174,63.1022193 125.137998,63.0663717 125.164955,63.0409402 C125.191911,63.0155088 125.229908,63.0034106 125.267687,63.0082307 L127.710408,63.0082307 C128.413293,62.9480094 129.09188,63.267766 129.463057,63.8340963 C129.834234,64.4004265 129.834234,65.1160348 129.463057,65.682365 C129.09188,66.2486953 128.413293,66.5684519 127.710408,66.5082306 Z" id="Shape"></path>
                <path d="M150.78466,55.0000007 L141.215247,55.0000007 C141.155546,54.9998574 141.098478,55.0230677 141.057743,55.0640593 C141.017007,55.1050508 140.996284,55.1601215 141.000549,55.21605 L141.000549,68.7983539 C141.000549,68.90972 141.096673,69 141.215247,69 L150.78466,69 C150.903234,69 150.999358,68.90972 150.999358,68.7983539 L150.999358,66.6522635 C151.004041,66.5975533 150.98293,66.5436681 150.941607,66.5048573 C150.900284,66.4660465 150.842911,66.4462188 150.78466,66.4506174 L144.359045,66.4506174 C144.321097,66.4554376 144.282929,66.4433394 144.255851,66.4179079 C144.228773,66.3924765 144.215892,66.3566288 144.221024,66.3209878 L144.221024,63.4403295 C144.215892,63.4046884 144.228773,63.3688408 144.255851,63.3434093 C144.282929,63.3179779 144.321097,63.3058797 144.359045,63.3106999 L149.711168,63.3106999 C149.829743,63.3106999 149.925866,63.2204198 149.925866,63.1090538 L149.925866,60.8909469 C149.925866,60.7795808 149.829743,60.6893008 149.711168,60.6893008 L144.359045,60.6893008 C144.321097,60.694121 144.282929,60.6820228 144.255851,60.6565913 C144.228773,60.6311599 144.215892,60.5953122 144.221024,60.5596712 L144.221024,57.736626 C144.221024,57.6646096 144.221024,57.6213997 144.359045,57.6213997 L150.78466,57.6213997 C150.903234,57.6213997 150.999358,57.5311197 150.999358,57.4197536 L150.999358,55.21605 C151.003623,55.1601215 150.9829,55.1050508 150.942164,55.0640593 C150.901429,55.0230677 150.844361,54.9998574 150.78466,55.0000007 Z" id="Shape"></path>
                <path d="M166.12952,55.216544 C166.114086,55.0869855 165.997291,54.9919886 165.863946,55.0005339 L163.208204,55.0005339 C163.073778,54.9975996 162.95615,55.0882393 162.927876,55.216544 L158,68.7963801 C158,68.9115855 158,68.9979895 158.147541,68.9979895 L160.906562,68.9979895 C161.038403,69.0082962 161.15792,68.9223408 161.18689,68.7963801 L161.983612,66.3482654 L167.000013,66.3482654 L167.826244,68.7963801 C167.833598,68.8576941 167.865853,68.9135633 167.915778,68.9514635 C167.965703,68.9893638 168.029121,69.0061249 168.091818,68.9979895 L170.836084,68.9979895 C170.983625,68.9979895 171.027888,68.9115855 170.983625,68.7963801 L166.12952,55.216544 Z M162.839351,63.7705447 L164.477058,58.8743153 L166.100012,63.7705447 L162.839351,63.7705447 Z" id="Shape"></path>
                <path d="M189.77975,55.0007517 L187.421803,55.0007517 C187.363306,54.9955849 187.305657,55.0172562 187.265583,55.0594786 C187.225508,55.101701 187.207493,55.1597478 187.216765,55.2167791 L187.216765,64.0162931 L187.099599,64.0162931 L182.076148,55.2167791 C182.012594,55.0828772 181.874901,54.998252 181.724653,55.0007517 L179.22025,55.0007517 C179.160739,54.9963985 179.102252,55.0177564 179.060055,55.0592509 C179.017858,55.1007454 178.996139,55.1582587 179.000566,55.2167791 L179.000566,68.7976985 C179.00042,68.8537643 179.024021,68.9073581 179.065702,68.9456129 C179.107383,68.9838678 179.163381,69.0033289 179.22025,68.999324 L181.578197,68.999324 C181.633827,69.0037222 181.688619,68.9838965 181.728083,68.9450896 C181.767547,68.9062828 181.787708,68.8524031 181.783235,68.7976985 L181.783235,60.0125863 L181.900401,60.0125863 L186.938498,68.7976985 C187.003398,68.9286383 187.142138,69.0082226 187.289993,68.999324 L189.77975,68.999324 C189.836619,69.0033289 189.892617,68.9838678 189.934298,68.9456129 C189.975979,68.9073581 189.99958,68.8537643 189.999434,68.7976985 L189.999434,55.2167791 C190.003861,55.1582587 189.982142,55.1007454 189.939945,55.0592509 C189.897748,55.0177564 189.839261,54.9963985 189.77975,55.0007517 Z" id="Shape"></path>
                <path d="M215.898529,55.0216418 L210.209577,55.0216418 C210.151449,55.0214988 210.095884,55.0446723 210.056222,55.0855987 C210.016559,55.1265251 209.996382,55.1815083 210.000535,55.2373479 L210.000535,68.7980723 C210.000535,68.9092614 210.094126,68.999398 210.209577,68.999398 L212.927134,68.999398 C212.983851,69.0037896 213.039713,68.9839934 213.079947,68.9452443 C213.120182,68.9064951 213.140737,68.8526956 213.136177,68.7980723 L213.136177,64.1244398 C213.136177,64.0525378 213.136177,64.0093966 213.270562,64.0093966 L215.853734,64.0093966 C217.629944,64.1772052 219.351038,63.3592518 220.293302,61.8994829 C221.235566,60.4397141 221.235566,58.5913243 220.293302,57.1315555 C219.351038,55.6717866 217.629944,54.8538332 215.853734,55.0216418 L215.898529,55.0216418 Z M215.704417,61.3921624 L213.315357,61.3921624 C213.225767,61.3921624 213.180972,61.3921624 213.180972,61.2771191 L213.180972,57.7539193 C213.180972,57.6820172 213.180972,57.638876 213.315357,57.638876 L215.704417,57.638876 C216.441301,57.5766928 217.151574,57.9201616 217.539931,58.5264804 C217.928287,59.1327992 217.928287,59.8982392 217.539931,60.504558 C217.151574,61.1108768 216.441301,61.4543456 215.704417,61.3921624 Z" id="Shape"></path>
                <path d="M236.211945,63.2188304 C237.792996,62.5580934 238.800773,61.0182897 238.753225,59.3359554 C238.759489,58.1129024 238.235209,56.9447213 237.3108,56.1219965 C236.386392,55.2992718 235.148735,54.8993275 233.905697,55.0216497 L228.206179,55.0216497 C228.148993,55.0215067 228.094329,55.0446811 228.05531,55.0856093 C228.016291,55.1265374 227.996441,55.181523 228.000526,55.237365 L228.000526,68.7986657 C228.000526,68.9098596 228.0926,69 228.206179,69 L230.879664,69 C230.993243,69 231.085317,68.9098596 231.085317,68.7986657 L231.085317,63.7509281 C231.080401,63.7153422 231.092739,63.67955 231.118676,63.6541579 C231.144613,63.6287657 231.181173,63.6166863 231.217522,63.621499 L233.127154,63.621499 L235.580297,68.7411417 C235.616164,68.8750781 235.748696,68.9615773 235.888776,68.9424759 L238.826672,68.9424759 C238.887985,68.94685 238.946521,68.9167841 238.977691,68.8649092 C239.00886,68.8130342 239.007261,68.7483376 238.973567,68.6979986 L236.211945,63.2188304 Z M233.729423,61.0760586 L231.217522,61.0760586 C231.129385,61.0760586 231.085317,61.0760586 231.085317,60.9610105 L231.085317,57.7252812 C231.085317,57.6533761 231.085317,57.6102331 231.217522,57.6102331 L233.729423,57.6102331 C234.400311,57.5503381 235.04813,57.8669101 235.402494,58.4278193 C235.756858,58.9887286 235.756858,59.6975631 235.402494,60.2584724 C235.04813,60.8193816 234.400311,61.1359536 233.729423,61.0760586 Z" id="Shape"></path>
                <path d="M251.505171,55.0185369 C249.231392,54.8174356 247.123176,56.2700396 246.412848,58.527251 C246.070618,59.8191193 245.939689,61.1617207 246.025544,62.4988167 C245.939689,63.8359127 246.070618,65.1785141 246.412848,66.4703824 C247.267787,68.6076455 249.273765,70 251.497999,70 C253.722233,70 255.72821,68.6076455 256.58315,66.4703824 C256.93348,65.180107 257.064552,63.8360467 256.970453,62.4988167 C257.062504,61.1616175 256.931468,59.8179246 256.58315,58.527251 C255.878485,56.2723471 253.775202,54.819049 251.505171,55.0185369 Z M253.69989,65.6193326 C253.361793,66.5771493 252.485532,67.213724 251.505171,67.213724 C250.52481,67.213724 249.648549,66.5771493 249.310451,65.6193326 C249.089526,64.5961619 249.012218,63.5450673 249.080938,62.4988167 C249.01178,61.4575119 249.0891,60.4112763 249.310451,59.3932315 C249.635511,58.4209991 250.51616,57.7694392 251.505171,57.7694392 C252.494182,57.7694392 253.374831,58.4209991 253.69989,59.3932315 C253.921241,60.4112763 253.998562,61.4575119 253.929404,62.4988167 C253.998124,63.5450673 253.920816,64.5961619 253.69989,65.6193326 Z" id="Shape"></path>
                <path d="M274.729813,55.0048087 L271.848125,55.0048087 C271.786486,55.0046679 271.727565,55.0274842 271.685507,55.0677799 C271.64345,55.1080755 271.622054,55.1622113 271.626457,55.2171903 L271.626457,63.9673122 C271.626457,65.538936 270.818951,66.3601449 269.362274,66.3601449 C268.634603,66.3423984 267.949636,66.0490068 267.478093,65.5530948 C267.387937,65.4809859 267.25158,65.4809859 267.161424,65.5530948 L265.055575,66.9689721 C264.981475,67.0517348 264.981475,67.169385 265.055575,67.2521476 C266.103731,68.4234876 267.718588,69.0717317 269.393941,68.9936767 C272.893133,68.9936767 274.998982,67.2096713 274.998982,63.8257245 L274.998982,55.2171903 C275.005779,55.1539485 274.978265,55.0916253 274.924991,55.0495903 C274.871716,55.0075554 274.799138,54.990903 274.729813,55.0048087 Z" id="Shape"></path>
                <path d="M292.784661,55.0005562 L283.230625,55.0005562 C283.168311,54.9962029 283.107069,55.0175614 283.062884,55.0590569 C283.018699,55.1005525 282.995957,55.1580672 283.000592,55.2165891 L283.000592,68.7978538 C283.00044,68.853921 283.025152,68.9075161 283.068797,68.945772 C283.112442,68.9840278 283.171077,69.0034894 283.230625,68.9994844 L292.784661,68.9994844 C292.903235,68.9994844 292.999358,68.9092113 292.999358,68.7978538 L292.999358,66.6519275 C293.004041,66.5972215 292.98293,66.5433405 292.941607,66.5045326 C292.900285,66.4657248 292.842912,66.4458986 292.784661,66.4502969 L286.359073,66.4502969 C286.26706,66.4502969 286.236389,66.4502969 286.236389,66.3206772 L286.236389,63.4402393 C286.236389,63.3538261 286.236389,63.3106196 286.359073,63.3106196 L291.711173,63.3106196 C291.829748,63.3106196 291.925871,63.2203465 291.925871,63.1089889 L291.925871,60.8910517 C291.925871,60.7796942 291.829748,60.6894211 291.711173,60.6894211 L286.359073,60.6894211 C286.26706,60.6894211 286.236389,60.6894211 286.236389,60.5598014 L286.236389,57.7369722 C286.236389,57.6649613 286.236389,57.6217547 286.359073,57.6217547 L292.784661,57.6217547 C292.903235,57.6217547 292.999358,57.5314816 292.999358,57.4201241 L292.999358,55.2165891 C293.003623,55.1606649 292.9829,55.1055984 292.942165,55.06461 C292.90143,55.0236216 292.844361,55.000413 292.784661,55.0005562 Z" id="Shape"></path>
                <path d="M305.748679,57.7726743 C306.82266,57.7643352 307.780062,58.4273399 308.120244,59.4149916 C308.197242,59.5493631 308.305041,59.5941535 308.428239,59.5344329 L310.830603,58.4893219 C310.892079,58.4816205 310.944307,58.44198 310.966774,58.3859694 C310.989241,58.3299589 310.978358,58.2665239 310.938401,58.2205791 C310.097088,56.1688434 307.990872,54.8737774 305.71788,55.0105952 C303.325986,54.8596481 301.145314,56.3352298 300.466559,58.5639727 C300.071852,59.8353935 299.925613,61.1671142 300.035366,62.4906041 C299.925613,63.8140939 300.071852,65.1458147 300.466559,66.4172355 C301.144253,68.6751436 303.360943,70.1639358 305.779479,69.9855431 C308.057662,70.1248903 310.167758,68.8214039 311,66.7606291 C311,66.656118 311,66.5516069 310.892202,66.5068164 L308.489838,65.4617054 C308.435521,65.4314357 308.370308,65.4255704 308.311174,65.4456361 C308.252041,65.4657019 308.204834,65.5097137 308.181843,65.5662165 C307.8458,66.5568261 306.885803,67.2216276 305.810278,67.2085338 C304.756875,67.2755914 303.804445,66.6034673 303.546513,65.611007 C303.29828,64.5895077 303.215157,63.536833 303.300116,62.4906041 C303.2145,61.4493233 303.29764,60.4014668 303.546513,59.3851313 C303.793905,58.4097538 304.713322,57.7365439 305.748679,57.7726743 Z" id="Shape"></path>
                <path d="M328.793646,55.0007517 L318.208226,55.0007517 C318.149503,54.9955849 318.091633,55.0172563 318.051404,55.0594789 C318.011175,55.1017015 317.993091,55.1597487 318.002398,55.2167802 L318.002398,57.4922802 C317.993091,57.5493117 318.011175,57.6073589 318.051404,57.6495815 C318.091633,57.6918041 318.149503,57.7134755 318.208226,57.7083087 L321.824911,57.7083087 C321.898421,57.7083087 321.942527,57.7083087 321.942527,57.8235239 L321.942527,68.7977705 C321.942381,68.8538367 321.966072,68.9074307 322.007914,68.9456858 C322.049755,68.9839408 322.105968,69.003402 322.163056,68.9993971 L324.824113,68.9993971 C324.879958,69.0037953 324.934961,68.9839695 324.974576,68.9451624 C325.014192,68.9063554 325.034431,68.8524755 325.029941,68.7977705 L325.029941,57.8235239 C325.029941,57.7371125 325.029941,57.7083087 325.162259,57.7083087 L328.793646,57.7083087 C328.85088,57.7084519 328.905591,57.6852438 328.944643,57.6442562 C328.983695,57.6032687 329.003562,57.5482033 328.999474,57.4922802 L328.999474,55.2167802 C329.003562,55.1608571 328.983695,55.1057917 328.944643,55.0648042 C328.905591,55.0238166 328.85088,55.0006085 328.793646,55.0007517 Z" id="Shape"></path>
                <path d="M49.393749,21.9999918 C50.2229265,22.0026113 50.9143804,21.3755379 50.9807107,20.5607904 C51.5044081,8.96896126 41.2367659,4.66700039 35.7300088,4.00997364 C35.2872821,3.96047391 34.8438394,4.09672042 34.5080483,4.3854175 C34.1773602,4.68762161 33.9927084,5.11423272 34.0002206,5.55867956 C34.2858737,11.018259 37.6502325,21.5150435 49.393749,21.9999918 Z M47.9178747,18.871293 C40.1100231,17.7136744 37.920016,10.8774675 37.3169705,7.45154234 C40.7289382,8.29629102 47.4417862,11.0339025 47.9178747,18.8243625 L47.9178747,18.871293 Z" id="Shape"></path>
                <path d="M56.6088261,21.9999918 C68.3626537,21.4841012 71.8093843,11.0568568 71.9999869,5.56965618 C72.0018022,5.1294724 71.8149816,4.70893299 71.4854217,4.41135279 C71.1558617,4.11377258 70.7141054,3.96673068 70.2686798,4.00635117 C64.7570877,4.67857232 54.4804302,9.0089272 55.020471,20.5617512 C55.0868595,21.3759548 55.7789205,22.0026095 56.6088261,21.9999918 Z M68.6962083,7.44562219 C68.0926334,10.8692602 65.9007033,17.7009031 58.0859963,18.8577488 C58.5625028,11.0412237 65.2812449,8.30543995 68.6962083,7.44562219 Z" id="Shape"></path>
                <path d="M104.608421,14.6415941 C104.608421,13.8076835 103.934955,13.1316654 103.104193,13.1316654 C102.273431,13.1316654 101.599965,13.8076835 101.599965,14.6415941 C101.855684,28.3064489 102.352079,64.5447379 101.599965,68.1685668 C100.938104,71.5055093 86.5576817,83.1621589 78.6454407,88.7639944 L77.6676923,89.4736609 C73.8168679,92.2368305 73.1550074,92.7351069 70.2518468,90.9835896 C69.2891407,90.3645189 69.0635064,89.9719374 69.0635064,89.8662424 C69.0635064,89.4736609 69.8306629,88.688498 70.7783267,87.8731365 C78.0587917,81.9240174 93.6576393,68.757439 94.3947111,64.5900358 C95.2220367,60.0602497 94.3947111,39.4195242 94.3947111,38.5437656 C94.346907,37.7454302 93.6872383,37.1229917 92.8904828,37.1244326 C92.1070477,37.1875431 91.504074,37.845433 91.5065928,38.6343613 C91.7171848,44.507984 92.153411,60.5585261 91.5065928,64.0464615 C91.1305357,66.1754609 81.2477557,75.3407282 71.0340455,83.8265275 C71.0340455,83.8265275 67.5743204,86.6953921 66.9124599,87.2087679 C65.751318,87.9070862 64.3144018,87.9583955 63.1067623,87.3446614 C61.3768998,86.5594985 61.0008427,85.8347327 60.910589,85.6233427 C60.8642207,85.5227718 60.8642207,85.4068286 60.910589,85.3062577 C66.9876713,80.0215072 83.9252821,64.4692415 84.557058,60.3773347 C85.1888339,56.2854279 84.557058,39.2383328 84.557058,38.5739641 C84.5092539,37.7756288 83.8495852,37.1531903 83.0528297,37.1546311 C82.2575083,37.2026164 81.6374197,37.864785 81.6388551,38.6645598 C81.849447,44.7042747 82.1202081,56.9195979 81.6388551,59.9092568 C81.157502,62.1590506 69.6050286,73.6194095 58.8347539,83.4037475 C58.0641724,83.7847694 57.1511408,83.7332167 56.4279886,83.2678539 C54.7131683,82.1354074 54.2017307,81.3200459 54.111477,81.0029609 C61.6326186,72.592658 74.1327558,58.3540302 74.6291512,56.0740379 C75.1255465,53.7940455 74.6291512,40.0989921 74.6291512,38.5588648 C74.5897613,38.3977983 74.5505677,38.2368122 74.5104451,38.0757139 C74.4773006,37.9843055 74.4317438,37.8979276 74.3750646,37.819026 C74.351678,37.752497 74.3159496,37.6910163 74.2697686,37.6378345 L74.1043035,37.5019409 C73.999758,37.4227722 73.8890982,37.3520855 73.7733732,37.2905509 C73.4293567,37.1594213 73.0493877,37.1594213 72.7053711,37.2905509 C72.5862635,37.3331226 72.4745836,37.3942698 72.3744409,37.4717424 L62.4014072,45.9273431 C61.3434396,46.6173931 60.0612124,46.8715656 58.8213439,46.6370096 C58.0625067,46.4653828 57.3993893,46.0053944 56.971143,45.3535702 C56.847462,45.0847336 56.8106446,44.7837988 56.865847,44.4929109 L76.2703922,20.1377608 C76.775963,19.7602389 76.9935412,19.1064219 76.8155141,18.4996838 C76.6374869,17.8929457 76.1015889,17.4618902 75.4728719,17.4197146 C74.8441549,17.377539 74.2558812,17.7331829 73.9990075,18.310747 L54.4440395,42.8923864 C54.3514833,42.9929004 54.2798825,43.110976 54.2334475,43.23967 C54.226864,43.2998864 54.226864,43.3606451 54.2334475,43.4208615 L54.2334475,1.14285762 C54.0657264,0.471106341 53.4642587,0 52.774346,0 C52.0844334,0 51.4829657,0.471106341 51.3152446,1.14285762 L51.3152446,43.4208615 C51.3218281,43.3606451 51.3218281,43.2998864 51.3152446,43.23967 C51.2632105,43.1137504 51.192182,42.9966184 51.1046526,42.8923864 L31.5496846,18.310747 C31.2928109,17.7331829 30.7045372,17.377539 30.0758202,17.4197146 C29.4471032,17.4618902 28.9112052,17.8929457 28.733178,18.4996838 C28.5551509,19.1064219 28.7727291,19.7602389 29.2782999,20.1377608 L48.682845,44.4929109 C48.7380475,44.7837988 48.7012301,45.0847336 48.5775491,45.3535702 C48.1493028,46.0053944 47.4861854,46.4653828 46.7273482,46.6370096 C45.4874797,46.8715656 44.2052525,46.6173931 43.1472849,45.9273431 L33.1742512,37.4717424 C33.0237127,37.3749532 32.8535818,37.3130476 32.6762236,37.2905247 C32.332207,37.1593951 31.9522381,37.1593951 31.6082215,37.2905247 L31.5179678,37.2905247 L31.2020799,37.5019147 C31.1405124,37.5387196 31.0847462,37.5845195 31.0366148,37.6378083 C30.9904337,37.6909901 30.9547054,37.7524708 30.9313188,37.8189998 C30.8746396,37.8979014 30.8290827,37.9842793 30.7959382,38.0756877 C30.7584586,38.231096 30.7193349,38.3950739 30.6784909,38.5590689 C30.6784909,40.0689976 30.2121802,53.658356 30.6784909,56.074242 C31.1448017,58.4901279 43.536752,72.6077572 51.0879781,81.0784573 C50.9977244,81.3955423 50.4862868,82.2109038 48.7714665,83.3433504 C48.0483144,83.8087131 47.1352828,83.8602658 46.3647012,83.4792439 C35.5342574,73.6345088 24.0419531,62.1741499 23.5606001,59.9394554 C23.1093316,56.9195979 23.3800927,44.7344733 23.5606001,38.6947584 C23.562541,37.900439 22.9510498,37.2404299 22.1616677,37.1848297 C21.3649122,37.1833889 20.7052435,37.8058273 20.6574394,38.6041627 C20.6574394,39.3289285 20.0557481,56.3911229 20.6574394,60.4075333 C21.2591307,64.4239436 38.2268261,80.0366065 44.1384433,85.3817541 C44.1779065,85.4837376 44.1779065,85.5968557 44.1384433,85.6988391 C44.0481896,85.955527 43.6721326,86.6349949 41.94227,87.4201579 C40.7346305,88.033892 39.2977143,87.9825827 38.1365724,87.2842643 C37.4747119,86.7708885 34.0149868,83.9171233 34.0149868,83.902024 C23.8012766,75.4162246 13.9184966,66.2509574 13.5424395,64.1219579 C12.9106636,60.6340226 13.3468898,44.5834804 13.5424395,38.7098577 C13.5443805,37.9155383 12.9328893,37.2555291 12.1435072,37.199929 C11.3467517,37.1984882 10.687083,37.8209266 10.6392789,38.619262 C10.6392789,39.4950206 9.84203788,60.1357461 10.6392789,64.6655322 C11.3763508,68.8329355 26.9751983,81.9995138 34.2556633,87.9486329 C35.2033272,88.7639944 36.0005682,89.5491574 35.9704836,89.9417388 C35.9704836,90.0474338 35.7448494,90.4400153 34.767101,91.0590861 C31.9241095,92.8710005 31.2171222,92.372724 27.3662977,89.5491574 L26.3885493,88.8394909 C18.5063929,83.2376554 4.09588574,71.5810057 3.43402529,68.2440633 C2.7119957,64.6202344 3.20839104,28.3819453 3.43402529,14.7170905 C3.43402529,13.8831799 2.76055933,13.2071618 1.92979698,13.2071618 C1.09903462,13.2071618 0.425568667,13.8831799 0.425568667,14.7170905 C0.320272685,19.7753517 -0.476968318,64.2578515 0.425568667,68.8782333 C1.62895131,74.9179482 24.3277565,91.1043839 24.4932216,91.2704761 L25.4559277,91.9650433 C27.9529467,93.7467592 29.7279361,94.9849007 31.8338558,94.9849007 C33.3766985,94.9003318 34.8636721,94.3766094 36.1209064,93.474972 C37.2646153,92.8430014 38.1371817,91.8112981 38.5727986,90.5759089 C38.9987213,90.6624178 39.4318977,90.707922 39.8664349,90.7118025 C40.905711,90.7003162 41.9308706,90.4687812 42.8748916,90.0323345 C44.5638919,89.454163 45.9266286,88.179653 46.62042,86.5292999 C46.8159697,86.5292999 47.0115194,86.5292999 47.2221114,86.5292999 C48.2333211,86.5282667 49.2219368,86.2289829 50.0651029,85.6686406 C50.8876779,85.1354012 51.6449842,84.5069889 52.3214453,83.796329 C52.9979064,84.5069889 53.7552127,85.1354012 54.5777878,85.6686406 C55.4209538,86.2289829 56.4095696,86.5282667 57.4207793,86.5292999 C57.6313713,86.5292999 57.8269209,86.5292999 58.0224706,86.5292999 C58.716262,88.179653 60.0789987,89.454163 61.7679991,90.0323345 C62.7115797,90.4700853 63.7370212,90.701684 64.7764557,90.7118025 C65.2109469,90.7071114 65.6440473,90.6616151 66.0700921,90.5759089 C66.5646824,91.8613083 67.5346972,92.9053212 68.777703,93.4900713 C70.0349374,94.3917087 71.521911,94.9154311 73.0647537,95 C75.1556311,95 76.9456628,93.7165606 79.4276395,91.9801426 L80.4053879,91.2855754 C80.6310221,91.1194832 103.329827,74.857551 104.473041,68.8933326 C105.510958,64.2276529 104.713717,19.7451531 104.608421,14.6415941 Z M51.7949654,57.6292644 C52.344877,57.6896216 52.899705,57.6896216 53.4496166,57.6292644 C54.6196125,57.515637 55.7743003,57.2777505 56.8942994,56.9195979 C57.9275992,56.5462229 59.0044238,56.3077133 60.0983057,56.2099315 C60.7150393,56.2099315 60.8955467,56.4062222 60.9557158,56.4666193 C61.015885,56.5270165 61.497238,57.1913851 61.497238,58.8825053 C61.497238,59.9092568 61.2264769,63.0197099 52.622291,63.0197099 C44.0181051,63.0197099 43.7623863,59.9092568 43.747344,58.8825053 C43.747344,57.1913851 44.123401,56.6327115 44.2888662,56.4666193 C44.4543313,56.3005272 44.5295427,56.2099315 45.1462763,56.2099315 C46.2401582,56.3077133 47.3169827,56.5462229 48.3502826,56.9195979 C49.4702817,57.2777505 50.6249694,57.515637 51.7949654,57.6292644 Z M52.622291,78.3454863 C44.8003038,69.6180984 34.0901982,57.2064844 33.4283378,55.500265 C33.1962655,50.892892 33.1962655,46.276691 33.4283378,41.669318 L41.1901558,48.2375079 C42.520918,49.1609654 44.0862483,49.6847195 45.7028408,49.7474366 C47.9297642,49.7192523 49.9790922,48.5216683 51.1030204,46.5916856 C51.1737984,46.4221159 51.224292,46.2447186 51.2534432,46.0632105 L51.2534432,54.609407 C50.5673128,54.4587964 49.8894868,54.2723178 49.222735,54.0507334 C47.9192354,53.5854558 46.557188,53.3059149 45.1763609,53.2202726 C44.0872751,53.1728111 43.0266398,53.5768339 42.2431157,54.3376199 C41.1918195,55.5976921 40.697523,57.2334162 40.8742679,58.867406 C40.8742679,63.548185 45.025938,65.9187731 52.6523756,65.9187731 C60.2788131,65.9187731 64.4003987,63.548185 64.4304832,58.867406 C64.6072281,57.2334162 64.1129317,55.5976921 63.0616355,54.3376199 C62.2599578,53.5570954 61.167908,53.1515057 60.0531788,53.2202726 C58.6723517,53.3059149 57.3103043,53.5854558 56.0068047,54.0507334 C55.3589853,54.2550425 54.7013016,54.4263859 54.0362656,54.5641092 L54.0362656,46.0179127 C54.0654169,46.1994208 54.1159104,46.376818 54.1866884,46.5463877 C55.3106166,48.4763704 57.3599446,49.6739544 59.5868681,49.7021387 C61.2034605,49.6394216 62.7687908,49.1156675 64.099553,48.19221 L71.8613711,41.6240201 C71.9967516,47.1805578 72.071963,54.1413291 71.8613711,55.4549671 C71.1543838,57.2215837 60.4292359,69.6180984 52.622291,78.3454863 Z" id="Shape"></path>
                <polygon id="Shape" points="336 63 336 63.5103734 334.875 63.5103734 334.875 66 334.185 66 334.185 63.5103734 333 63.5103734 333 63"></polygon>
                <polygon id="Shape" points="338.674419 63 339.55814 64.9294606 340.430233 63 341 63 341 66 340.511628 66 340.511628 63.8589212 339.674419 65.7012448 339.325581 65.7012448 338.5 63.8589212 338.5 66 338 66 338 63"></polygon>
            </g>
        </g>
    </g>
</svg>